<svg fill="none" xmlns="http://www.w3.org/2000/svg" viewBox="0 0 512 512"><path d="M205.5 148.5c-3.5-4.5-18.5-18.8-18.5-30s25-12 32-12c23.3 0 37.4-3.5 61-3.5 8.5 0 39-3.5 47 8.5 6 7-5.3 19.7-8 24.5a293.9 293.9 0 01-25.5 31.5c-7 7-12.5 15.5-22 22.5-4.8 4.6-23.6 2.3-29 2-5.7-.3-13.3-12-17-15.7-5-5-12.6-18.3-20-27.8z" class="water" fill="#C4C4C4"/><path fill-rule="evenodd" clip-rule="evenodd" d="M220.6 55c-36.7 2.3-87.5 11-90.2 15.2-1.2 1.9-1.4 1.6 25.4 36.3 61.3 79.3 72.8 94.4 72.8 95.2 0 .5.8 1.6 1.9 2.6 1 .9 2.1 3.3 2.4 5.4l2 10.7c12.9 58.8 15.6 167.7 4.8 192-2.3 5.1-7 8.4-15.5 11-5.7 1.6-9.5 2.3-34.4 6.5-33.7 5.6-18.4 20.1 27.3 26 70 8.8 159.6-12.2 106.3-25-38.3-9.2-52.3-19-53.2-37.2l-1.6-26.3a737.8 737.8 0 019.7-154.4l1.6-8.4 11.7-14.6 39-49.1c37.8-47.8 39.8-50.3 45.8-57.7 9.4-11.7 7.3-13.6-22.8-20-35.3-7.5-91.6-11-133-8.3zm85 7.3c26 2.6 59 8.5 59 10.5s-16.3 3.2-51 4a2550 2550 0 00-59 2.2c-42.3 2.3-113.2-2.4-108.3-7.1 2.2-2.2 42.2-8.3 65.3-10l19.5-1.4c10.5-.8 60.6.4 74.5 1.8zM156.9 80.8c28.4 5.7 62.1 6.8 112.2 3.6 4.4-.2 19.5-.7 33.5-1 37.2-.8 50.6-1.5 59-3 4.1-.9 8-1.5 8.8-1.5 1.3 0 1.2.2-43.1 56L286.8 186c-5.9 7.5-11.4 14-12.2 14.3-6.1 2.8-39.2 1.1-40.4-2-.2-.7-7.4-10.3-15.8-21.2a16699.7 16699.7 0 01-44.7-57.8c-34.7-45-32.8-42.2-28.5-41l11.7 2.4zm116.7 126.7l-1.5 7.2C264 253.9 259.2 334 263 371.5c.9 8.9 1.6 18.6 1.6 21.7 0 11 7.3 23.3 17.4 29.2 7 4 44.7 16.5 50.3 16.5.1 0 .3.5.3 1 0 2.9-15.2 6.4-34 8-6.9.5-18.1 1.5-25 2.2-32.5 3.3-76-.2-90.7-7.4-6.6-3.2-5.5-3.7 21.7-9.3 32.6-6.6 37.7-9.4 41.9-22.8 10.9-35.3 6-151.9-8.4-201.7-.4-1.3 2-1.5 17.5-1.6 10 0 18 0 18 .2z" fill="#000"/></svg>
