<svg fill="none" xmlns="http://www.w3.org/2000/svg" viewBox="0 0 512 512"><path fill-rule="evenodd" clip-rule="evenodd" d="M246.4 44L232 45.7C206 49 180 57 180 62v11.8c0 9.3 1.4 97 2.4 143.5.7 30.8 2.2 114.1 3.1 168 1 55.7 1.7 72.9 3.3 73.9.8.5 3.3 1.1 5.5 1.5 2.3.3 7.1 1.5 10.8 2.6 27.7 8.2 116 5.8 123.7-3.3 1.3-1.7 3.8-395.7 2.4-396.6-.5-.4-.8-2-.7-3.8.7-9.8-52.4-19.7-84-15.7zm46.5 6.8c15.3 2.2 33.1 7.5 25.1 7.5-1.2 0-12.7 1.6-25.4 3.6-34.8 5.6-120.9 3.8-101-2a375.9 375.9 0 0162.3-11c6-.8 28 .3 39 1.9zm33.3 39.7l-.8 174.3-.7 146.1-9.1 3.2c-18 6.2-37.8 8.5-73.2 8.6h-21l-14-3.8c-7.6-2-14.3-4-14.7-4.5-.5-.5-1.5-33.6-2.3-73.7a288064.6 288064.6 0 00-5-260.8l-.7-14 4.4.8c24 3.9 53.5 5.8 71.9 4.5a445 445 0 0049-6.4l15.4-2.4c.7-.1 1 9.7.8 28.1zm-1.4 341c-.1 22.7-.5 24.8-5.4 26.4-19.5 6.8-89.6 6.5-116.5-.5l-10.5-2.7-.3-17.2c-.1-9.5 0-17.2.2-17.2l13.4 3.6c26.6 7.6 91.3 4.7 113.2-5 6.2-2.7 6-3 6 12.6z" fill="#000"/><path d="M198 150.3c0-9.7 56.4-12.8 56.4-12.8s56.3-4.5 60.8 13.5-.5 238.1-5 247.5c-4.4 9.4-43.4 9.8-54.3 9.4-11-.5-45 0-51.4-9.4-6.5-9.4-6.5-238.5-6.5-248.2z" class="water" fill="#C4C4C4"/></svg>
