<svg fill="none" xmlns="http://www.w3.org/2000/svg" viewBox="0 0 512 512"><path fill-rule="evenodd" clip-rule="evenodd" d="M174 45.4c-26 2-44.2 5.2-52.7 9.5-4.7 2.3-4.9 2.6-6.3 9.6-.1 1 .3 5.9 1.1 11l3.4 22.8c1.1 7.4 3.6 21.8 5.5 32 6.1 33 7.7 47.8 9.5 89 1.3 31.2 2.6 50.1 4.6 66.5 3.5 29.6 4.2 31.6 15.2 42.4a54.4 54.4 0 0021.2 13.8c8.5 3.6 12.6 31.8 8.7 59.5l-.8 5.8h-3.8c-12.5 0-40.4 7.5-49.4 13.3-41.3 26.7 48.7 56.6 132 43.8 69.4-10.7 71-41.2 2.8-54.6-16.8-3.4-19-9.3-13.6-37.1 4.3-22.4 6.4-26.4 15.2-28.8 17.9-4.8 31.1-20 37.5-42.6 2.4-8.8 9.5-10.5 24.8-6 16.1 4.9 34.7-1.1 50.2-16 3.1-3 5.3-6 5-6.7-.3-.7 0-1.2.6-1 9.2 1.8 15.6-61.3 8.6-84.3-10.1-33.2-20-42-48.1-43-29.3-1-32.3-3.5-29.4-23.3 2.8-19 3.6-24.7 5.3-39.7 2.3-19.3 2.2-19.2 1.1-21.7-5-11-87-18.9-148.2-14.2zm70 4.9c53.3 2.5 84.5 10 65.8 15.8-37.6 11.7-160.1 10.2-184.4-2.4-16-8.3 55.3-16.4 118.6-13.4zm-114.2 21c35.6 11.5 146.6 11 185-.7 2.4-.7 2 3.9-5.5 56.4l-1.2 8.2 3 4.3c5.4 7.5 9.6 8.9 31.2 10 26.7 1.4 29.3 3 39 23.9 12.8 27.1 13.6 57.1 2.5 88.6-7.2 20.4-35 33.9-56.1 27.2-17.6-5.5-24.8-1.8-31 15.6-6.3 18.1-17 30.3-29.1 33.4a113.4 113.4 0 01-31.6 4.1c-7.1 0-16.8.4-21.5.9-25.6 2.4-57-12.3-65.1-30.5-3-6.7-6.7-40.7-8.4-77.2-2.7-58.1-4.6-76.4-11.5-112-3-14.7-9-51.4-9-54.1 0-1 .6-1.1 1.8-.6l7.5 2.6zm209 91a78.5 78.5 0 00-30.6 30.3c-3 6.2-5 69.4-2.2 74.6 7.2 14 46.7 14.8 59.7 1.4 16.6-17.2 15.3-81-2-99.7-6.5-7-17.6-10-25-6.7zm14.5 6.3c20.3 10.3 26.1 76.2 8.5 95.7-7.7 8.6-23.7 11-41.3 6-11.4-3.1-11.2-2.5-10-22 .6-9.1.9-23.3.7-31.5-.5-20.4 1.6-25.8 15-38.7 11.8-11.4 18.6-13.8 27-9.5zM197.5 348.1c4 .6 15.8.7 30.5.3 28.1-.9 24.8-1.4 23 3.7-8 22.7-8.6 60.5-1 68 2.5 2.5 4.8.6 4-3.4-.3-1.9-.4-3.4-.1-3.4 8.9 0 39.4 9.2 47.4 14.3C336 449.8 244 470.7 171 457.2c-58.6-10.9-60.4-33.2-3.3-42.9 15.7-2.7 14.8-2.8 13.7 1.7-.6 2.8-.5 4.1.6 5.2 8.2 8.2 12.4-55 5-73.3-.7-1.7-.5-1.9 1.6-1.3 1.3.3 5.3 1 8.9 1.5z" fill="#000"/><path d="M152.2 196.1c-.7-6.6.6-19.8 0-26.4-2.6-31.3 26.2-34.9 33.2-34.9 4.1 0 59.3-1.8 70.4-1.8 21.3 3.6 38.2 7.1 37.2 24.3-1 16-.5 32.6-.5 48.8 0 5.5-.5 11.1-.5 16.6 0 3.3-2.8 28.8-2.8 34.8 0 5.9-.3 12-1 17.8 0 16.6-14.5 31.4-18.6 34.7-7 5.6-17 10.1-36.3 12-8.7 0-41.7-.3-50-3a41 41 0 01-17.7-12.3c-3.9-9.5-7.2-32.9-8.7-37.3-5.5-16.5-4-66.6-4.7-73.3z" class="water" fill="#C4C4C4"/></svg>
