<svg fill="none" xmlns="http://www.w3.org/2000/svg" viewBox="0 0 512 512"><path fill-rule="evenodd" clip-rule="evenodd" d="M194.8 145c-14.8 1.3-31.5 3.9-33.2 5-1.7 1 .4 46.4 3.6 79.8 2 20.7 4.5 59.3 5.6 86.6 1.3 32.4 1 31.7 12.4 37a172.4 172.4 0 00108.1 11.9c37.6-9.2 48.5-15.2 48.5-26.5 0-8 2.8-54 4-66 .6-5.5 1.5-25 2-43.5a587.9 587.9 0 015.4-76.3c.5-7.6-105.1-13-156.4-8zm114.8 4.8c32.8 3.4 24.8 4.3-39.8 4.4-53.4.1-93.6-.7-92.3-2 3.4-3.3 105.2-5.1 132-2.4zm-104.3 9.5c41.4 1.6 124.3.8 139-1.3.5-.1.9.3.8 1-1.8 9.4-4.3 45.5-4.3 60.8 0 10.4-.7 27.8-1.5 38.5-2.1 27.7-4.5 61.2-4.5 63.5 0 4.7-44.1 12.7-81 14.6-27.7 1.5-36.6.5-56-6-19-6.4-21-7.5-21-11.1a3365.9 3365.9 0 00-9.4-134.5l-1.2-20.2-.6-7.2 6.8.5c3.8.2 18.6.9 32.9 1.4zm-14.6 174.2c33.8 12.9 77.5 12.4 134.6-1.7 22-5.4 11.7 14.3-11.3 21.5-40.7 12.8-58.4 13.6-100.7 4.6-14-3-35.5-12.3-35.5-15.4 0-1-.3-4.7-.7-8.2-.6-6-.5-6.3 1.3-5.5l12.3 4.7z" fill="#000"/><path d="M181.5 251.5c-.7-4.4-2.2-16.6-2-21 1-23.5 32.6-27 39.5-27 4.2 0 49.4 1.5 60.5 1.5 21.3 2.4 39.4 2 45 12 6.8 12 4.5 30.3 4.5 41 0 4 0 29-3 40s-19.3 16.9-23.4 19c-7 3.8-17 6.8-36.3 8a473 473 0 01-50-2c-7.2-1.5-10.5-5-14.3-8a57 57 0 01-16.5-22c-3-11.9-3.3-37.1-4-41.5z" class="water" fill="#C4C4C4"/></svg>
