<svg fill="none" xmlns="http://www.w3.org/2000/svg" viewBox="0 0 512 512"><path fill-rule="evenodd" clip-rule="evenodd" d="M173.5 106.6c-19.9 1.9-42.4 5.3-44.8 6.8-2.1 1.3.7 62.6 5 107.6 2.7 28 6 80 7.5 116.7 1.7 43.7 1.4 42.8 16.7 49.8 45.2 21 100.8 27.1 145.5 16.2 50.6-12.4 65.3-20.5 65.3-35.7 0-10.8 3.8-73 5.5-89 .7-7.4 1.9-33.8 2.5-58.6a793.6 793.6 0 017.3-103c.7-10.2-141.5-17.5-210.5-10.8zm154.5 6.6c44.3 4.6 33.4 5.8-53.5 6-72 0-126-1-124.3-2.7 4.6-4.5 141.6-7 177.8-3.3zM187.6 126c55.8 2.2 167.4 1.1 187.1-1.8.8-.1 1.3.5 1.1 1.3a779.5 779.5 0 00-5.8 82c0 14.1-.9 37.5-2 52-2.9 37.3-6 82.4-6 85.6 0 6.3-59.4 17-109 19.6-37.3 2-49.4.7-75.4-8.1-25.7-8.6-28.3-10-28.3-15a4541 4541 0 00-9.4-136.7c-1.4-14.9-3-34.9-3.3-44.5l-1.6-27.2-.8-9.8 9.2.6c5 .4 25 1.3 44.2 2zM168 360.8c45.4 17.4 104.3 16.6 181.2-2.3 29.6-7.2 15.7 19.2-15.2 29-54.8 17.3-78.6 18.4-135.6 6.2-19-4-47.8-16.6-47.8-20.8 0-1.4-.4-6.3-.9-11-.8-8-.7-8.5 1.7-7.5l16.6 6.4z" fill="#000"/><path d="M156.7 250.4c-1-5.9-3-22.3-2.7-28.2 1.4-31.5 43.7-36.2 53-36.2 5.6 0 66.2 2 81.1 2 28.5 3.2 52.8 2.8 60.4 16.1 9 16.1 6 40.6 6 55 0 5.3 0 39-4 53.7-4 14.7-26 22.6-31.4 25.5-9.4 5-22.7 9-48.7 10.7-11.6 0-55.8-.3-67-2.6-9.7-2-14.1-6.7-19.2-10.8-8.7-7-20.1-21.5-22.1-29.5-4-16-4.4-49.8-5.4-55.7z" class="water" fill="#C4C4C4"/></svg>
