<svg fill="none" xmlns="http://www.w3.org/2000/svg" viewBox="0 0 512 512"><path fill-rule="evenodd" clip-rule="evenodd" d="M225.3 136.8c-37.7 4.4-51.4 12.2-49 28 .4 3.2 1.4 14.9 2 25.9.6 11 1.8 29.2 2.6 40.5 3.1 43.1 5.1 72.6 5.1 75 0 1.4.8 9 1.7 17 1 8 1.7 17.6 1.7 21.5v7l6.3 6.1c20 19.6 63.8 24.8 97.1 11.4 13.8-5.5 21.5-11.4 21.5-16.6 0-1.7.5-5.5 1-8.5 1.6-8.2 3.8-24.3 5-36.4.6-6 2-17.3 3-25 6-43.8 7.1-52.5 8.6-68 .8-9.4 2.4-23.9 3.5-32.3 3.5-27.7 1-31.7-23.8-39.1a312 312 0 00-86.3-6.5zm63 7.4c41.7 6.5 53.6 18.2 26.8 26.4-35.8 11-103.3 7.5-126.8-6.6-24.7-14.8 44.5-28.5 100-19.8zm-93 29.4c33.3 12.4 104 11.8 130.4-1.2 6-3 6-3 4.7 4.9-.6 3.5-1.7 13.4-2.6 21.9-3.1 31.5-3.7 36-7.5 64.5l-4.9 36.9c-1.1 9.4-1.3 9.5-14.2 17a86.2 86.2 0 01-82.4 3.8c-11.1-4.8-26.5-14.3-27-16.6-.2-1.2-1-13.1-2-26.6l-2.5-36a3689.2 3689.2 0 01-4.7-66.8l-.6-8.3 3.4 2a82 82 0 0010 4.5zm7.4 145.5c34 20.6 68.5 21.9 100.6 3.7 11.3-6.4 11-6.8 8.5 10.5-1 6.3-2 13.3-2.2 15.7-3.8 30.1-116.2 26.3-114.5-3.8.3-3.9-1-17.5-2.4-27.3-.7-4.9 0-4.8 10 1.2z" fill="#000"/><path d="M198 243.7c0-15 .7-28.3 4.7-35.7 4.1-7.3 28.1-7 41.7-7 7.5 0 47.8 0 61.6 7 8 7 8 31.7 8 42.2 0 5.2-5.6 38.4-8 43.7-2.5 5.3-7.2 7.2-23.8 17.5-8.8 5.5-19.4 10.8-27.2 10.6-13.2-.4-25.8-7.7-38-15.8-4.2-3.5-5.7-3.3-10.5-8.3-3.8-4-6.6-9.6-6.6-16 0-8.8-1.9-29.4-1.9-38.2z" class="water" fill="#C4C4C4"/></svg>
