<svg fill="none" xmlns="http://www.w3.org/2000/svg" viewBox="0 0 512 512"><path fill-rule="evenodd" clip-rule="evenodd" d="M221.7 14.1c-17.2 2.5-18 3.9-18 28 0 9-.5 25.6-1.1 36.8l-2.4 45.2a2615.4 2615.4 0 01-6.6 106.8l-.6 7.8 8.5 9.3c4.6 5.2 13.5 13.8 19.7 19.1l11.2 9.8.7 10.8 2.5 31c2.2 27.6 3.7 61.7 4.6 106.6l.7 37.6-12 4.9c-6.5 2.7-16.1 6.4-21.3 8.4-19.3 7.4-15.1 13.2 13.7 19.2 39.6 8.2 89.2 1.8 96.5-12.3 3.2-6.2 2.5-6.6-37.1-16.4l-15-3.8-.9-5.8c-.4-3.1-1.3-44.5-2-92l-1.1-86.1 16.6-17.5c9.2-9.7 18.7-19.4 21.3-21.7 4.4-4 4.6-4.4 4-9.8-.8-8.3-3.3-29.6-6-50.9-2.3-17.9-7.4-70.1-8.8-89.2-2.8-38-7.5-68.6-11-71.4-5.6-4.6-37.4-7-56.1-4.4zm46 7.4c6.7 1.4 5.2 2.5-7 5.4-19.6 4.7-49 3.2-49-2.4 0-4.7 37.2-6.6 56-3zm10 19.4l3 30.5c2.1 24.6 7.1 79.2 8.7 96.1.7 7 2.2 19 3.4 26.7 1.2 7.6 2.7 19.3 3.4 26l1.1 12-15.8 16.9-19.9 21.2c-10.6 11.3-20.4 8-43.6-15l-18.1-17.7.8-10.7c2.1-29.7 3-45.8 5.2-88.3 1.3-25.5 2.7-58.4 3-73 .4-14.7 1-28.3 1.2-30.3l.6-3.5 6.6 2.2c8.7 3 34.5 2.3 47.2-1.3 12.5-3.5 11.7-4 13.1 8.2zm-28 240.7h6l.2 36.2c.2 130.2 1.4 149 10 151.2l18.3 4.9c29 7.6 28 7.1 21.6 10.3-20 10.3-62.6 11.5-94.3 2.9-7.9-2.2-7.7-2.8 1.7-6.3 4-1.4 11.4-4.6 16.5-6.9l13-5.8c2.1-1 3.9-2.2 4-2.8 1.4-11.4-2-114.3-4.8-145.1a72158 72158 0 01-3-32.6c-.6-7.3-.5-7.4 2-6.7 1.5.4 5.5.7 8.8.7z" fill="#000"/><path d="M212 150.4c0-20.9 3.2-53 6.7-63.2C222 77 225.6 77 237 77c6.4 0 24.9.5 28.9 4 11 8.7 12.7 69.4 13.3 74.5.8 7.1 6.3 58.1 4.2 65.5-2 7.3 0 9.9-14 24.2-7.5 7.7-16.5 15.1-23.1 14.8-11.3-.6-22-10.7-32.4-22a25 25 0 01-4-14.7c0-9 2-26.1 2-35.2v-37.7z" class="water" fill="#C4C4C4"/></svg>
