<svg fill="none" xmlns="http://www.w3.org/2000/svg" viewBox="0 0 512 512"><path fill-rule="evenodd" clip-rule="evenodd" d="M226.8 47c-14.8 2.1-15.6 3.3-15.6 24 0 8-.4 22.2-1 31.9l-2 39a2256 2256 0 01-5.7 92.2l-.5 6.7 7.3 8c4 4.5 11.7 12 17 16.6l9.7 8.4.7 9.3 2 26.8c2 23.8 3.3 53.2 4 92l.7 32.5-10.4 4.2c-5.6 2.3-14 5.5-18.4 7.2-16.7 6.4-13 11.4 11.8 16.6 34.2 7 77 1.6 83.4-10.7 2.8-5.3 2-5.6-32-14l-13-3.3-.8-5c-.4-2.8-1.2-38.5-1.7-79.4l-1-74.4 14.4-15.1c7.9-8.3 16.1-16.8 18.3-18.7 3.8-3.4 4-3.8 3.5-8.5-.7-7.1-2.9-25.5-5.2-44-2-15.4-6.4-60.5-7.6-77-2.4-32.7-6.4-59.2-9.4-61.6-5-4-32.4-6-48.5-3.7zm39.7 6.4c5.8 1.1 4.5 2.1-6 4.6-17 4-42.3 2.8-42.3-2.1 0-4 32-5.7 48.3-2.5zM275 70c.6 5.1 1.8 17 2.6 26.3l7.6 83c.6 6 1.9 16.4 2.9 23 1 6.6 2.3 16.6 2.9 22.4l1 10.4-13.7 14.6-17.2 18.3c-9.1 9.8-17.6 6.9-37.6-12.9L207.9 240l.7-9.3c1.9-25.6 2.7-39.5 4.6-76.2 1.1-22 2.3-50.4 2.6-63 .3-12.7.7-24.4 1-26.1l.4-3.1 5.8 2c7.5 2.5 29.8 1.9 40.7-1.2 10.8-3 10.1-3.4 11.4 7.1zM251 278h5.2V309c.3 112.3 1.4 128.5 8.7 130.5l15.8 4.2c25 6.6 24.2 6.2 18.7 9-17.3 8.8-54 9.9-81.4 2.4-6.8-1.9-6.7-2.4 1.4-5.4 3.5-1.3 10-4 14.3-6l11.3-5c1.8-.8 3.3-1.9 3.3-2.4 1.3-9.8-1.6-98.6-4-125.2l-2.6-28.2c-.6-6.3-.5-6.4 1.7-5.8 1.3.4 4.7.7 7.6.7z" fill="#000"/><path d="M218.7 164.4c0-18 2.8-45.8 5.8-54.6 3-8.8 6-8.8 16-8.8 5.5 0 21.4.4 25 3.5 9.4 7.5 11 59.9 11.4 64.3.7 6.1 5.5 50.1 3.7 56.5-1.8 6.3 0 8.6-12.2 21-6.5 6.5-14.2 13-20 12.7-9.7-.5-19-9.2-28-19-3-4.2-3.4-9-3.4-12.7 0-7.8 1.7-22.6 1.7-30.4v-32.5z" class="water" fill="#C4C4C4"/></svg>
