<svg fill="none" xmlns="http://www.w3.org/2000/svg" viewBox="0 0 512 512"><path fill-rule="evenodd" clip-rule="evenodd" d="M222.5 46.5c-17 1.5-26.3 4.9-26.3 9.5 0 1.4-.8 3.4-1.7 4.4-2.6 2.8-9 19.6-12.2 32.3-18 70.3 4.2 146.1 49.5 169 15.7 8 20.6 86.1 9.1 143.2l-2.2 11-4 .3c-81.8 5.4-63.4 51.2 20.5 51.2 77.7 0 93.2-40.4 19.2-50-10.9-1.5-9.8.3-12.4-19-4-30.1-3-90.4 1.8-115 3.5-17 3.8-17.6 12.9-21.8 54.7-25.7 78.5-137.4 43-201.8-6.8-12.2-47.2-17.7-97.2-13.3zm64.8 6c11.2 1.3 23 3.9 23 5 0 7.1-85.9 7.1-104.6 0-12.9-5 49.7-8.9 81.6-5zM204.7 63c23 7.2 91.8 7.2 108.6 0 5.9-2.5 15.8 37.2 16.6 66.6 3 105.6-69.4 170-120.1 106.6-29.7-37-37.2-110-16.5-159.9a36220.4 36220.4 0 016.3-14.9l5.1 1.6zm55 213.4c-2.5 11-5.4 34.2-5.6 44.1-.2 13.7-1.5 10.9-2.2-4.6-.7-17.3-2.6-32.2-5.6-42.8l-1.8-6.7h17.4l-2.2 10zm-5.4 93.7c2 39 7.2 65.3 13 65.3 2.4 0 2.5-2.2.4-8-2-5.5-1.9-5.6 7.9-4.2 20.2 3 36.4 9.6 40.1 16.5l2 3.6-2 2.8c-15.6 21-103.6 21-125.2 0-10.6-10.1 6.3-19.7 42.6-24.2 3.8-.4 3.9.2.5 8.8-1.5 4-1.6 5-.4 5.7 6.7 4.1 15-28 18.2-69.6.6-9 1.3-16.2 1.6-16 .2.3.8 9 1.3 19.3z" fill="#000"/><path d="M195 184.6a47.2 47.2 0 019.3-43.2c8.4-10 47-11.4 53-11.4 19.3 0 54.6 6.5 59.8 20.6 4.2 11.3.4 23.8-2 34C312 197 299.7 227.4 288 236c-3 3-20.3 13-29.6 13-9.4 0-28.1-6.5-34.9-10.8-18.2-11.7-23-36.1-28.6-53.6z" class="water" fill="#C4C4C4"/></svg>
